{"title":"Bambuka Punjabi 2016 DesiSCR x264-HDF.mp4","uid":15699694,"size":271849594,"categoryP":"video","categoryS":"movies","magnet":"?xt=urn:btih:c0049d96796833a11b5e4932353270e29b33232a&amp;dn=Bambuka+Punjabi+2016+DesiSCR+x264-HDF.mp4&amp;tr=udp%3A%2F%2Ftracker.leechers-paradise.org%3A6969&amp;tr=udp%3A%2F%2Fzer0day.ch%3A1337&amp;tr=udp%3A%2F%2Fopen.demonii.com%3A1337&amp;tr=udp%3A%2F%2Ftracker.coppersurfer.tk%3A6969&amp;tr=udp%3A%2F%2Fexodus.desync.com%3A6969","seeders":0,"leechers":4,"uploader":null,"files":1,"time":1472463576,"description":"http://www.movierulzfull.in/ presents:\r\n\r\nBambuka Punjabi 2016 DesiSCR x264-HDF.mp4\r\n\r\nScreens:\r\n \nhttp://extraimago.com/images/2016/08/29/wqNx.png \nhttp://extraimago.com/images/2016/08/29/wqN6.png \nhttp://extraimago.com/images/2016/08/29/wqNV.png \nhttp://extraimago.com/images/2016/08/29/wqNu.png \nhttp://extraimago.com/images/2016/08/29/wqNv.png\r\n\r\nInfo:\r\n\r\nFormat : MPEG-4\r\nFormat profile : Base Media\r\nCodec ID : isom (isom/iso2/avc1/mp41)\r\nFile size : 259 MiB\r\nDuration : 1 h 54 min\r\nOverall bit rate : 316 kb/s\r\nWriting application : Lavf57.41.100\r\n\r\nVideo\r\nID : 1\r\nFormat : AVC\r\nFormat/Info : Advanced Video Codec\r\nFormat profile :   \r\nFormat settings, CABAC : Yes\r\nFormat settings, ReFrames : 4 frames\r\nCodec ID : avc1\r\nCodec ID/Info : Advanced Video Coding\r\nDuration : 1 h 54 min\r\nBit rate : 245 kb/s\r\nWidth : 560 pixels\r\nHeight : 240 pixels\r\nDisplay aspect ratio : 2.35:1\r\nFrame rate mode : Constant\r\nFrame rate : 25.000 FPS\r\nColor space : YUV\r\nChroma subsampling : 4:2:0\r\nBit depth : 8 bits\r\nScan type : Progressive\r\nBits/(Pixel*Frame) : 0.073\r\nStream size : 201 MiB (78%)\r\nWriting library : x264 core 148 r276 3f5ed56\r\nEncoding settings : cabac=1 / ref=2 / deblock=1:0:0 / analyse=0x1:0x111 / me=hex / subme=4 / psy=1 / psy_rd=1.00:0.00 / mixed_ref=0 / me_range=16 / chroma_me=1 / trellis=1 / 8x8dct=0 / cqm=0 / deadzone=21,11 / fast_pskip=1 / chroma_qp_offset=0 / threads=2 / lookahead_threads=1 / sliced_threads=0 / nr=0 / decimate=1 / interlaced=0 / bluray_compat=0 / constrained_intra=0 / bframes=3 / b_pyramid=2 / b_adapt=1 / b_bias=0 / direct=1 / weightb=1 / open_gop=0 / weightp=1 / keyint=250 / keyint_min=25 / scenecut=40 / intra_refresh=0 / rc_lookahead=20 / rc=crf / mbtree=1 / crf=23.0 / qcomp=0.60 / qpmin=0 / qpmax=69 / qpstep=4 / ip_ratio=1.40 / aq=1:1.00\r\n\r\nAudio\r\nID : 2\r\nFormat : AAC\r\nFormat/Info : Advanced Audio Codec\r\nFormat profile : LC\r\nCodec ID : 40\r\nDuration : 1 h 54 min\r\nBit rate mode : Constant\r\nBit rate : 64.4 kb/s\r\nChannel(s) : 2 channels\r\nChannel positions : Front: L R\r\nSampling rate : 22.05 kHz\r\nFrame rate : 21.533 FPS (1024 spf)\r\nCompression mode : Lossy\r\nStream size : 52.9 MiB (20%)\r\nDefault : Yes\r\nAlternate group : 1 \r\n \nhttp://www.movierulzfull.in/bambuka-full-movie-watch/\r\n \nhttp://tvmoviereviews.drupalgardens.com/content/bambuka-review","torrent":{"xt":"urn:btih:c0049d96796833a11b5e4932353270e29b33232a","amp;dn":"Bambuka+Punjabi+2016+DesiSCR+x264-HDF.mp4","amp;tr":["udp%3A%2F%2Ftracker.leechers-paradise.org%3A6969","udp%3A%2F%2Fzer0day.ch%3A1337","udp%3A%2F%2Fopen.demonii.com%3A1337","udp%3A%2F%2Ftracker.coppersurfer.tk%3A6969","udp%3A%2F%2Fexodus.desync.com%3A6969"],"infoHash":"c0049d96796833a11b5e4932353270e29b33232a","infoHashBuffer":{"type":"Buffer","data":[192,4,157,150,121,104,51,161,27,94,73,50,53,50,112,226,155,51,35,42]},"announce":[],"urlList":[]}}